# xmcd
#
# Track frame offsets: 
#        150
#        26627
#        54046
#        74954
#        95827
#        117810
#        138747
#        159008
#        180145
#        199658
#        224680
#        241801
#        260376
#        279797
#
# Disc length: 3998 seconds
#
# Revision: 2
# Processed by: cddbd v1.5.2PL0 Copyright (c) Steve Scherf et al.
# Submitted via: ExactAudioCopy v0.95a5
#
DISCID=c30f9c0e
DTITLE=Plinio Profeta - VOL 1
DYEAR=2007
DGENRE=Electronic
TTITLE0=Vou Bater Pe
TTITLE1=Casa Latina
TTITLE2=To na Sua Esquina
TTITLE3=Samba Cubano
TTITLE4=Lavadeiras
TTITLE5=Tudo de Graça
TTITLE6=Funk Bueno
TTITLE7=Us Mano E As Mina RMX
TTITLE8=Como é Grande O Meu Amor Por Você
TTITLE9=Pra Tarantino Ouvir
TTITLE10=Tá Todo Errado
TTITLE11=Noite Monobloco
TTITLE12=Alegria
TTITLE13=Surf Malecon 2
EXTD=
EXTT0=
EXTT1=
EXTT2=
EXTT3=
EXTT4=
EXTT5=
EXTT6=
EXTT7=
EXTT8=
EXTT9=
EXTT10=
EXTT11=
EXTT12=
EXTT13=
PLAYORDER=
